<?xml version="1.0" encoding="UTF-8" standalone="no"?>
<svg
   width="295"
   height="295"
   viewBox="0 0 295 295"
   version="1.1"
   id="svg108"
   sodipodi:docname="coingecko.svg"
   inkscape:version="1.1.1 (eb90963e84, 2021-10-02)"
   xmlns:inkscape="http://www.inkscape.org/namespaces/inkscape"
   xmlns:sodipodi="http://sodipodi.sourceforge.net/DTD/sodipodi-0.dtd"
   xmlns="http://www.w3.org/2000/svg"
   xmlns:svg="http://www.w3.org/2000/svg"
   xmlns:rdf="http://www.w3.org/1999/02/22-rdf-syntax-ns#"
   xmlns:cc="http://creativecommons.org/ns#"
   xmlns:dc="http://purl.org/dc/elements/1.1/">
  <metadata
     id="metadata114">
    <rdf:RDF>
      <cc:Work
         rdf:about="">
        <dc:format>image/svg+xml</dc:format>
        <dc:type
           rdf:resource="http://purl.org/dc/dcmitype/StillImage" />
      </cc:Work>
    </rdf:RDF>
  </metadata>
  <defs
     id="defs112" />
  <sodipodi:namedview
     pagecolor="#ffffff"
     bordercolor="#666666"
     borderopacity="1"
     objecttolerance="10"
     gridtolerance="10"
     guidetolerance="10"
     inkscape:pageopacity="0"
     inkscape:pageshadow="2"
     inkscape:window-width="1848"
     inkscape:window-height="1016"
     id="namedview110"
     showgrid="false"
     inkscape:zoom="1.420339"
     inkscape:cx="45.411694"
     inkscape:cy="270.71002"
     inkscape:window-x="1512"
     inkscape:window-y="27"
     inkscape:window-maximized="1"
     inkscape:current-layer="coingecko"
     inkscape:pagecheckerboard="0" />
  <g
     id="coingecko"
     transform="translate(9.499 10.501)"
     fill="#008a81">
    <path
       style="fill:#ffffff;fill-opacity:1;stroke-width:0.352029"
       d="M 129.53997,283.98356 C 92.547827,281.32348 59.53136,266.38124 33.9642,240.72892 10.95897,217.64707 -3.2876504,188.50723 -7.8415204,155.22009 c -1.06662,-7.7966 -1.14845,-27.92146 -0.14471,-35.59049 C -3.5430404,85.681303 10.60175,56.473753 33.9642,33.006233 53.22457,13.659243 76.864867,0.2678626 103.13782,-6.1781174 c 13.01955,-3.1942996 20.8184,-4.0908396 35.37888,-4.0670696 14.37725,0.0235 22.59357,0.97072 35.04959,4.0408496 48.90912,12.05503 88.34641,48.2943004 104.37327,95.9095204 5.22916,15.535647 7.6432,30.309357 7.65075,46.821787 0.009,19.64775 -3.16246,36.55348 -10.20299,54.38843 -3.93669,9.97235 -8.97739,19.54075 -14.92884,28.3383 -24.39539,36.06177 -62.46515,59.01765 -106.2765,64.08422 -4.54007,0.52504 -20.50294,0.94328 -24.64201,0.64564 z m 39.84188,-22.35574 c 55.3302,-13.8102 94.83905,-61.99301 97.42235,-118.81094 2.31845,-50.992487 -25.19345,-98.005657 -70.73082,-120.866957 -13.96801,-7.01241 -27.71484,-11.07272 -44.3556,-13.10101 -4.86863,-0.59342 -21.51817,-0.59502 -26.57817,-0.003 -30.495343,3.57071 -56.797283,16.14545 -77.80127,37.19617 -21.16987,21.21699 -33.75009,47.89056 -36.98996,78.429027 -0.7076904,6.67054 -0.5084504,22.14482 0.36598,28.4248 3.02623,21.7336 10.41352,40.79159 22.45549,57.93138 3.46639,4.93386 5.50607,7.29937 2.73127,3.16759 -1.16212,-1.73043 -2.11294,-3.3253 -2.11294,-3.54415 0,-0.21885 0.79564,-2.36542 1.76808,-4.77016 7.07092,-17.48552 10.3021,-34.5158 12.85354,-67.74588 1.48773,-19.37615 3.16458,-27.14608 7.79464,-36.11754 6.89433,-13.358817 19.872837,-23.049857 40.261797,-30.063457 14.413863,-4.95822 24.630233,-5.5867 39.450363,-2.42687 2.59736,0.55378 2.78261,0.54716 5.98449,-0.21384 1.81729,-0.43192 4.88828,-0.88581 6.82444,-1.00865 9.42344,-0.59787 16.19007,1.47331 21.10302,6.45937 1.99928,2.02902 4.41906,5.81887 4.41906,6.92111 0,0.269 1.12258,0.92244 2.55221,1.48561 9.06707,3.57181 18.90649,7.12094 24.04184,8.67201 13.55345,4.09367 20.76955,7.095657 26.86513,11.176217 14.08984,9.43216 16.71282,22.85669 7.35988,37.66825 -0.76413,1.21009 -1.61952,2.20018 -1.90085,2.20018 -0.28134,0 -1.35006,0.61946 -2.37495,1.37659 -9.09119,6.71606 -26.75633,14.07862 -41.40603,17.25741 -8.18044,1.77505 -13.01935,2.26839 -22.35382,2.27904 -6.51056,0.007 -9.19354,-0.12867 -11.69564,-0.59327 -4.35549,-0.80874 -9.20956,-2.42238 -12.39761,-4.12135 -1.44073,-0.76778 -2.69648,-1.31899 -2.79057,-1.22491 -0.28568,0.28568 1.76231,2.25604 4.05705,3.90325 6.80245,4.88296 17.01123,7.2555 27.72887,6.44424 14.64503,-1.10853 34.41955,-7.64909 48.7013,-16.10828 4.49385,-2.66175 9.14042,-5.87245 10.8346,-7.48654 0.59007,-0.56217 1.19396,-1.02213 1.34198,-1.02213 0.9497,0 -3.92961,5.23477 -17.55466,18.83353 -15.02716,14.99818 -20.84345,21.25714 -27.64257,29.74642 -20.13472,25.13993 -29.43073,49.34542 -26.88023,69.99232 l 0.18811,1.52275 1.47055,-0.24059 c 0.80881,-0.13233 3.95415,-0.86049 6.98965,-1.61814 z M 39.06861,218.24072 c 0,-0.0731 -0.27722,-0.35032 -0.61605,-0.61605 -0.55834,-0.43788 -0.57079,-0.42543 -0.13291,0.13291 0.45988,0.58639 0.74896,0.77287 0.74896,0.48314 z M 211.47785,135.6488 c 3.33096,-2.03091 3.37612,-6.87295 0.0848,-9.09077 -1.02851,-0.69305 -1.56721,-0.80679 -3.26018,-0.68833 -1.73162,0.12116 -2.2086,0.31688 -3.26306,1.3389 -2.31859,2.24727 -2.35416,5.46835 -0.0841,7.61538 1.39396,1.31841 1.76236,1.46397 3.79111,1.49787 1.00046,0.0167 2.00685,-0.23126 2.73143,-0.67305 z m -85.48066,-5.13972 c 8.36642,-2.03286 14.91636,-8.09216 17.84896,-16.51194 0.88566,-2.5428 0.9809,-3.27764 0.9809,-7.56861 0,-4.28564 -0.0961,-5.02899 -0.97801,-7.56862 -2.36429,-6.808137 -6.9081,-11.949607 -13.07697,-14.797017 -3.48963,-1.61073 -6.54215,-2.27637 -10.43903,-2.27637 -6.65999,0 -12.55556,2.40706 -17.22797,7.03389 -7.039133,6.97045 -9.318333,16.575237 -6.127663,25.822557 1.23335,3.57458 2.84478,6.05618 5.984403,9.21603 3.21439,3.2351 6.90891,5.38577 11.1697,6.50216 3.25347,0.85246 8.68733,0.9202 11.86568,0.14792 z"
       id="path6072"
       inkscape:connector-curvature="0" />
  </g>
</svg>
