<?xml version="1.0"?>
<svg xmlns="http://www.w3.org/2000/svg" xmlns:xlink="http://www.w3.org/1999/xlink" version="1.1" id="Capa_1" x="0px" y="0px" viewBox="0 0 480 480" style="enable-background:new 0 0 480 480;" xml:space="preserve" width="512px" height="512px" class=""><g><g>
	<g>
		<path d="M472,424h-16V152c0-22.056-17.944-40-40-40h-72V8c0-4.416-3.576-8-8-8H144c-4.424,0-8,3.584-8,8v104H64    c-22.056,0-40,17.944-40,40v272H8c-4.424,0-8,3.584-8,8v8c0,22.056,17.944,40,40,40h400c22.056,0,40-17.944,40-40v-8    C480,427.584,476.424,424,472,424z M344,192c8.824,0,16,7.176,16,16c0,8.824-7.176,16-16,16V192z M152,16h176v208h-16V64    c0-4.416-3.576-8-8-8c-8.824,0-16-7.176-16-16c0-4.416-3.576-8-8-8h-80c-4.424,0-8,3.584-8,8c0,8.824-7.176,16-16,16    c-4.424,0-8,3.584-8,8v160h-16V16z M240,160c-22.056,0-40,17.944-40,40c0,9.04,3.128,17.296,8.208,24H184V70.992    c11.224-2.904,20.088-11.76,22.984-22.992h66.032c2.896,11.232,11.76,20.088,22.984,22.992V224h-24.208    c5.08-6.704,8.208-14.96,8.208-24C280,177.944,262.056,160,240,160z M264,200c0,13.232-10.768,24-24,24s-24-10.768-24-24    s10.768-24,24-24S264,186.768,264,200z M144,240h192h8c17.648,0,32-14.352,32-32s-14.352-32-32-32v-16h64v232H72V160h64v16    c-17.648,0-32,14.352-32,32s14.352,32,32,32H144z M136,192v32c-8.824,0-16-7.176-16-16C120,199.176,127.176,192,136,192z M40,152    c0-13.232,10.768-24,24-24h72v16H64c-4.424,0-8,3.584-8,8v248c0,4.416,3.576,8,8,8h352c4.424,0,8-3.584,8-8V152    c0-4.416-3.576-8-8-8h-72v-16h72c13.232,0,24,10.768,24,24v272H40V152z M440,464H40c-13.232,0-24-10.768-24-24h16h416h16    C464,453.232,453.232,464,440,464z" data-original="#000000" class="active-path" data-old_color="#000000" fill="#34bbff"/>
	</g>
</g><g>
	<g>
		<rect x="200" y="288" width="16" height="16" data-original="#000000" class="active-path" data-old_color="#000000" fill="#34bbff"/>
	</g>
</g><g>
	<g>
		<rect x="200" y="256" width="16" height="16" data-original="#000000" class="active-path" data-old_color="#000000" fill="#34bbff"/>
	</g>
</g><g>
	<g>
		<rect x="168" y="256" width="16" height="16" data-original="#000000" class="active-path" data-old_color="#000000" fill="#34bbff"/>
	</g>
</g><g>
	<g>
		<rect x="232" y="256" width="16" height="16" data-original="#000000" class="active-path" data-old_color="#000000" fill="#34bbff"/>
	</g>
</g><g>
	<g>
		<rect x="264" y="256" width="16" height="16" data-original="#000000" class="active-path" data-old_color="#000000" fill="#34bbff"/>
	</g>
</g><g>
	<g>
		<rect x="296" y="256" width="16" height="16" data-original="#000000" class="active-path" data-old_color="#000000" fill="#34bbff"/>
	</g>
</g><g>
	<g>
		<rect x="232" y="288" width="16" height="16" data-original="#000000" class="active-path" data-old_color="#000000" fill="#34bbff"/>
	</g>
</g><g>
	<g>
		<rect x="232" y="320" width="16" height="16" data-original="#000000" class="active-path" data-old_color="#000000" fill="#34bbff"/>
	</g>
</g><g>
	<g>
		<rect x="264" y="288" width="16" height="16" data-original="#000000" class="active-path" data-old_color="#000000" fill="#34bbff"/>
	</g>
</g></g> </svg>
