<svg clip-rule="evenodd" fill-rule="evenodd" stroke-linejoin="round" stroke-miterlimit="2" viewBox="0 0 11 24" xmlns="http://www.w3.org/2000/svg"><path d="m3725.35 952.456c0-2.675-.88-3.874-3.98-4.949-2.47-.925-2.85-1.35-2.85-2.5 0-.033 0-.067 0-.1 0-.817.66-1.491 1.48-1.5.86.011 1.57.693 1.62 1.55h3.15c-.07-2.125-1.4-3.974-3.1-4.3v-3.325h-3.17v3.325c-2.06.491-3.47 2.434-3.3 4.548-.09 2.057 1.24 3.925 3.22 4.5.92.27 1.8.648 2.63 1.125.64.343 1.02 1.029.97 1.75v.03c0 1.122-.92 2.045-2.05 2.045-.01 0-.03-.001-.05-.001-.01 0-.01 0-.02 0-1.14 0-2.08-.939-2.08-2.08 0-.023 0-.046 0-.069h-3.35v.325c.09 2.313 1.76 4.281 4.03 4.748v3.3h3.17v-3.3c2.28-.606 3.84-2.764 3.68-5.122z" fill="#32c9a4" transform="translate(-3714.47 -937.332)"/></svg>