<svg clip-rule="evenodd" fill-rule="evenodd" stroke-linejoin="round" stroke-miterlimit="2" viewBox="0 0 50 50" xmlns="http://www.w3.org/2000/svg"><path d="m37.558 25h-.109c6.927 0 12.551-5.624 12.551-12.551v-.007c0-6.867-5.575-12.442-12.442-12.442h-37.558v50h37.449c6.927 0 12.551-5.624 12.551-12.551v-.007c0-6.867-5.575-12.442-12.442-12.442zm5.442 11.526c0-4.706-3.82-8.526-8.526-8.526h-27.474v17h27.526c4.677 0 8.474-3.797 8.474-8.474zm0-22.499c0-4.982-4.045-9.027-9.027-9.027h-26.973v18h27.027c4.952 0 8.973-4.021 8.973-8.973z" fill="#fff"/></svg>