<svg clip-rule="evenodd" fill-rule="evenodd" stroke-linejoin="round" stroke-miterlimit="2" viewBox="0 0 500 500" xmlns="http://www.w3.org/2000/svg" xmlns:xlink="http://www.w3.org/1999/xlink"><radialGradient id="a" cx="0" cy="0" gradientTransform="matrix(-198.219 198.219 -198.219 -198.219 250 25)" gradientUnits="userSpaceOnUse" r="1"><stop offset="0" stop-color="#2ca9b7"/><stop offset="1" stop-color="#2ca9b7" stop-opacity="0"/></radialGradient><g fill="url(#a)" transform="matrix(.707107 .707107 -.707107 .707107 249.951 -103.602)"><path d="m254.23 499.965c-1.418.023-2.823.035-4.23.035s-2.812-.012-4.23-.035zm-4.23-499.965c13.798 0 25 11.202 25 25s-11.202 25-25 25c-110.383 0-200 89.617-200 200h-50c0-137.979 112.021-250 250-250z" transform="matrix(-1 0 0 -1 500 500)"/><path d="m254.23 499.965c-1.418.023-2.823.035-4.23.035s-2.812-.012-4.23-.035zm-4.23-499.965c13.798 0 25 11.202 25 25s-11.202 25-25 25c-110.383 0-200 89.617-200 200h-50c0-137.979 112.021-250 250-250z" transform="matrix(0 1 -1 0 500 0)"/><path d="m254.23 499.965c-1.418.023-2.823.035-4.23.035s-2.812-.012-4.23-.035zm-4.23-499.965c13.798 0 25 11.202 25 25s-11.202 25-25 25c-110.383 0-200 89.617-200 200h-50c0-137.979 112.021-250 250-250z"/><path d="m254.23 499.965c-1.418.023-2.823.035-4.23.035s-2.812-.012-4.23-.035zm-4.23-499.965c13.798 0 25 11.202 25 25s-11.202 25-25 25c-110.383 0-200 89.617-200 200h-50c0-137.979 112.021-250 250-250z" transform="matrix(0 -1 1 0 0 500)"/></g></svg>