<svg clip-rule="evenodd" fill-rule="evenodd" stroke-linejoin="round" stroke-miterlimit="2" viewBox="0 0 201 139" xmlns="http://www.w3.org/2000/svg"><g transform="translate(0 -.599)"><path d="m114.944 39.319c0-6.848-2.249-9.92-10.215-12.672-6.359-2.368-7.323-3.456-7.323-6.4 0-2.368 1.606-4.096 3.79-4.096s3.662 1.408 4.176 3.968h8.094c-.193-5.44-3.597-10.176-7.966-11.008v-8.512h-8.158v8.512c-5.782 1.344-8.48 6.144-8.48 11.648 0 5.632 2.827 9.536 8.287 11.52 5.589 2.112 5.589 2.176 6.745 2.88 1.799 1.152 2.506 2.432 2.506 4.48 0 3.008-2.313 5.312-5.397 5.312-3.083 0-5.203-2.176-5.396-5.504h-8.608v.832c0 5.44 3.855 10.368 10.343 12.16v8.448h8.158v-8.448c5.975-1.664 9.444-6.528 9.444-13.12z" fill="#32c9a4" fill-rule="nonzero"/><path d="m120.359 95.182h-9.24l-9.66 20.46-9.6-20.46h-8.94l8.46 16.26h-5.64v5.28h8.4l3.36 6.3h-11.76v5.28h11.76v11.22h7.98v-11.22h11.82v-5.28h-11.82l3.42-6.3h8.4v-5.28h-5.52z" fill="#ef5353" fill-rule="nonzero"/><g fill="#2ca9b7" transform="translate(-1292 -1079)"><path d="m1292 1156.5c.03 18.23 10.79 34.83 27.43 42.28.33.15.69.23 1.05.23 1.38 0 2.5-1.13 2.5-2.5 0-.99-.59-1.89-1.5-2.29-14.86-6.62-24.47-21.43-24.47-37.69 0-21.84 17.33-40.09 39.14-41.22 1.32-.07 2.37-1.18 2.37-2.5 0-1.37-1.13-2.5-2.5-2.5-.05 0-.1 0-.14 0-24.44 1.28-43.85 21.72-43.88 46.19z"/><path d="m1323.81 1127.4c0 1.37 1.13 2.5 2.51 2.5.71 0 1.38-.3 1.86-.83l13.62-15.13-13.68-14.18c-.47-.49-1.12-.77-1.8-.77-1.38 0-2.51 1.13-2.51 2.51 0 .65.25 1.27.7 1.74l10.45 10.82-10.51 11.67c-.41.46-.64 1.05-.64 1.67z"/><path d="m1446.47 1197.18v.14c.07 1.32 1.18 2.36 2.5 2.36h.14c24.44-1.27 43.87-21.73 43.87-46.2 0-18.23-10.78-34.84-27.43-42.26-.33-.15-.69-.23-1.05-.23-1.38 0-2.5 1.13-2.5 2.5 0 .99.59 1.89 1.5 2.29 14.86 6.62 24.47 21.43 24.47 37.7 0 21.83-17.33 40.08-39.13 41.21-1.32.07-2.37 1.17-2.37 2.49z"/><path d="m1443.18 1196.06 13.69 14.18c.47.49 1.12.76 1.8.76 1.37 0 2.5-1.13 2.5-2.5 0-.65-.25-1.27-.7-1.74l-10.45-10.82 10.51-11.67c.43-.46.67-1.07.67-1.7 0-1.37-1.13-2.5-2.5-2.5-.73 0-1.41.31-1.89.86z"/></g></g></svg>