<?xml version="1.0" encoding="iso-8859-1"?>
<!-- Generator: Adobe Illustrator 19.0.0, SVG Export Plug-In . SVG Version: 6.00 Build 0)  -->
<svg xmlns="http://www.w3.org/2000/svg" xmlns:xlink="http://www.w3.org/1999/xlink" version="1.1" id="Capa_1" x="0px" y="0px" viewBox="0 0 477.611 477.611" style="enable-background:new 0 0 477.611 477.611;" xml:space="preserve" width="512px" height="512px">
<g>
	<g>
		<path d="M124.811,335.606c-0.8-2.4-2.4-4.8-4-7.2c-1.6-2.4-2.4-3.2-4.8-4.8c-2.4-1.6-4.8-2.4-7.2-2.4c2.4-0.8,4-1.6,5.6-3.2    c1.6-1.6,3.2-3.2,4-4.8c0.8-1.6,1.6-3.2,2.4-5.6c0.8-2.4,0.8-4,0.8-6.4c0-4-0.8-7.2-1.6-9.6c-1.6-3.2-3.2-5.6-5.6-7.2    c-1.6-1.6-4-2.4-5.6-3.2c0-0.8,0-0.8,0-1.6v-14.4c0-4.8-3.2-8-8-8c-4.8,0-8,3.2-8,8v12h-0.8h-4v-12.8c0-4.8-3.2-8-8-8    c-4.8,0-8,3.2-8,8v12.8h-1.6c-0.8,0-2.4,0-3.2,0.8s-1.6,2.4-1.6,4v83.2c0,1.6,0.8,3.2,1.6,4c0.8,1.6,1.6,1.6,2.4,1.6h1.6v14.4    c0,4.8,3.2,8,8,8s8-3.2,8-8v-14.4h4.8v14.4c0,4.8,3.2,8,8,8c4.8,0,8-3.2,8-8v-14.4c0-0.8,0-1.6,0-1.6c0.8,0,2.4-0.8,3.2-0.8    c2.4-0.8,4.8-2.4,6.4-4c1.6-1.6,3.2-3.2,4.8-5.6c1.6-1.6,2.4-4,3.2-6.4c0.8-2.4,0.8-5.6,0.8-8    C126.411,341.206,125.611,338.006,124.811,335.606z M77.611,287.606h12.8c4,0,6.4,0,8.8,0.8c2.4,0.8,4,1.6,5.6,3.2    c1.6,1.6,2.4,3.2,3.2,4.8c0.8,1.6,0.8,4,0.8,6.4c0,2.4,0,4-0.8,5.6c-0.8,1.6-1.6,3.2-3.2,4.8c-1.6,1.6-3.2,2.4-4.8,3.2    c-1.6,0.8-4.8,1.6-8,1.6h-14.4V287.606z M112.811,352.406c-0.8,1.6-2.4,4-4,4.8c-1.6,1.6-3.2,2.4-5.6,3.2    c-2.4,0.8-4.8,0.8-7.2,0.8h-18.4v-32.8h15.2c4,0,7.2,0,9.6,0.8s4.8,1.6,6.4,3.2c1.6,1.6,3.2,3.2,4,5.6c0.8,2.4,1.6,4.8,1.6,7.2    S113.611,350.006,112.811,352.406z" fill="#34bbff"/>
	</g>
</g>
<g>
	<g>
		<path d="M460.011,58.806h-392.8c-9.6,0-17.6,8-17.6,17.6v165.6c-29.6,16-49.6,47.2-49.6,83.2c-0.8,51.2,41.6,93.6,93.6,93.6    c47.2,0,85.6-34.4,92.8-80h30.4l-8,45.6h-15.2c-4.8,0-8,3.2-8,8s3.2,8,8,8h22.4h96.8h22.4c4.8,0,8-3.2,8-8s-3.2-8-8-8h-16.8    l-8-45.6h149.6c9.6,0,17.6-8,17.6-17.6v-244.8C477.611,66.806,469.611,58.806,460.011,58.806z M93.611,402.006    c-42.4,0-77.6-35.2-77.6-77.6c-0.8-42.4,34.4-77.6,77.6-77.6s77.6,35.2,77.6,77.6C171.211,367.606,136.011,402.006,93.611,402.006    z M94.411,230.806v-126.4h338.4v185.6h-252C167.211,255.606,133.611,231.606,94.411,230.806z M224.811,384.406l8-45.6h61.6l8,45.6    H224.811z M461.611,321.206c0,0.8-0.8,1.6-1.6,1.6h-159.2h-74.4h-39.2c0-5.6-0.8-11.2-1.6-16.8h255.2c4.8,0,8-3.2,8-8v-201.6    c0-4.8-3.2-8-8-8h-354.4c-4.8,0-8,3.2-8,8v136c-4.8,0.8-8.8,1.6-12.8,3.2v-159.2c0-0.8,0.8-1.6,1.6-1.6h392.8    c0.8,0,1.6,0.8,1.6,1.6V321.206z" fill="#34bbff"/>
	</g>
</g>
<g>
	<g>
		<path d="M373.611,166.806c-0.8-1.6-3.2-3.2-6.4-3.2h-137.6l-12-29.6c-0.8-2.4-2.4-4-4.8-4.8l-30.4-11.2c-4-1.6-8.8,0.8-10.4,4.8    c-1.6,4,0.8,8.8,4.8,10.4l27.2,10.4l12,29.6c0,0.8,0,1.6,0.8,1.6l5.6,14.4v0.8l9.6,21.6l16.8,40c-1.6,2.4-3.2,4.8-3.2,8    c0,7.2,5.6,12.8,12.8,12.8c4,0,8-2.4,10.4-5.6h49.6c2.4,3.2,6.4,5.6,10.4,5.6c7.2,0,12.8-5.6,12.8-12.8c0-7.2-5.6-12.8-12.8-12.8    c-3.2,0-7.2,1.6-8.8,4h-52c-0.8-0.8-1.6-1.6-3.2-2.4l-4-10.4h81.6c3.2,0,6.4-1.6,7.2-4.8l24.8-59.2    C375.211,171.606,375.211,168.406,373.611,166.806z M336.811,222.806h-82.4l-16.8-38.4l-1.6-4h119.2L336.811,222.806z" fill="#34bbff"/>
	</g>
</g>
<g>
</g>
<g>
</g>
<g>
</g>
<g>
</g>
<g>
</g>
<g>
</g>
<g>
</g>
<g>
</g>
<g>
</g>
<g>
</g>
<g>
</g>
<g>
</g>
<g>
</g>
<g>
</g>
<g>
</g>
</svg>
