<?xml version="1.0" encoding="iso-8859-1"?>
<!-- Generator: Adobe Illustrator 19.0.0, SVG Export Plug-In . SVG Version: 6.00 Build 0)  -->
<svg xmlns="http://www.w3.org/2000/svg" xmlns:xlink="http://www.w3.org/1999/xlink" version="1.1" id="Capa_1" x="0px" y="0px" viewBox="0 0 496 496" style="enable-background:new 0 0 496 496;" xml:space="preserve" width="512px" height="512px">
<g>
	<g>
		<g>
			<path d="M416,0H0v80h416V0z M400,64H16V16h384V64z" fill="#34bbff"/>
			<rect x="32" y="32" width="16" height="16" fill="#34bbff"/>
			<rect x="64" y="32" width="16" height="16" fill="#34bbff"/>
			<rect x="96" y="32" width="16" height="16" fill="#34bbff"/>
			<polygon points="16,96 0,96 0,416 96,416 96,400 16,400    " fill="#34bbff"/>
			<rect x="400" y="96" width="16" height="208" fill="#34bbff"/>
			<path d="M336,147.056L233.888,96h-51.776L80,147.056V176h256V147.056z M320,160H96v-3.056L185.888,112h44.224L320,156.944V160z" fill="#34bbff"/>
			<rect x="80" y="288" width="256" height="16" fill="#34bbff"/>
			<rect x="80" y="192" width="16" height="80" fill="#34bbff"/>
			<rect x="112" y="192" width="16" height="80" fill="#34bbff"/>
			<rect x="184" y="192" width="16" height="80" fill="#34bbff"/>
			<rect x="216" y="192" width="16" height="80" fill="#34bbff"/>
			<rect x="288" y="192" width="16" height="80" fill="#34bbff"/>
			<rect x="320" y="192" width="16" height="80" fill="#34bbff"/>
			<path d="M432,369.472V352h-16v16h-16v-16h-16v16h-16v80h16v16h16v-16h16v16h16v-17.472c9.288-3.312,16-12.112,16-22.528     c0-6.144-2.32-11.752-6.128-16c3.808-4.248,6.128-9.856,6.128-16C448,381.584,441.288,372.784,432,369.472z M424,432h-40v-16h40     c4.408,0,8,3.584,8,8C432,428.416,428.408,432,424,432z M424,400h-40v-16h40c4.408,0,8,3.584,8,8     C432,396.416,428.408,400,424,400z" fill="#34bbff"/>
			<path d="M408,336c16.56,0,32.744,5.776,45.552,16.256l10.136-12.376C448.024,327.064,428.248,320,408,320     c-48.52,0-88,39.48-88,88c0,20.248,7.056,40.024,19.872,55.688l12.384-10.144C341.776,440.744,336,424.56,336,408     C336,368.296,368.304,336,408,336z" fill="#34bbff"/>
			<path d="M476.128,352.312l-12.384,10.144C474.224,375.256,480,391.44,480,408c0,39.704-32.304,72-72,72     c-16.56,0-32.744-5.776-45.552-16.256l-10.136,12.376C367.976,488.936,387.752,496,408,496c48.52,0,88-39.48,88-88     C496,387.752,488.944,367.976,476.128,352.312z" fill="#34bbff"/>
			<rect x="288" y="432" width="16" height="16" fill="#34bbff"/>
			<polygon points="184,447.64 133.032,408 184,368.36 184,384 256,384 256,368 200,368 200,335.64 106.968,408 200,480.36 200,448      272,448 272,432 184,432    " fill="#34bbff"/>
			<rect x="272" y="368" width="32" height="16" fill="#34bbff"/>
		</g>
	</g>
</g>
<g>
</g>
<g>
</g>
<g>
</g>
<g>
</g>
<g>
</g>
<g>
</g>
<g>
</g>
<g>
</g>
<g>
</g>
<g>
</g>
<g>
</g>
<g>
</g>
<g>
</g>
<g>
</g>
<g>
</g>
</svg>
