<?xml version="1.0" encoding="iso-8859-1"?>
<!-- Generator: Adobe Illustrator 18.0.0, SVG Export Plug-In . SVG Version: 6.00 Build 0)  -->
<!DOCTYPE svg PUBLIC "-//W3C//DTD SVG 1.1//EN" "http://www.w3.org/Graphics/SVG/1.1/DTD/svg11.dtd">
<svg xmlns="http://www.w3.org/2000/svg" xmlns:xlink="http://www.w3.org/1999/xlink" version="1.1" id="Capa_1" x="0px" y="0px" viewBox="0 0 60 60" style="enable-background:new 0 0 60 60;" xml:space="preserve" width="512px" height="512px">
<g>
	<path d="M55,21.293c-0.552,0-1,0.447-1,1v1c0,0.553,0.448,1,1,1s1-0.447,1-1v-1C56,21.74,55.552,21.293,55,21.293z" fill="#34bbff"/>
	<path d="M55,13.127c-0.552,0-1,0.447-1,1v2.333c0,0.553,0.448,1,1,1s1-0.447,1-1v-2.333C56,13.574,55.552,13.127,55,13.127z" fill="#34bbff"/>
	<path d="M54,8.293c0,0.553,0.448,1,1,1s1-0.447,1-1v-2h-2c-0.552,0-1,0.447-1,1S53.448,8.293,54,8.293z" fill="#34bbff"/>
	<path d="M18.255,8.293h2.042c0.552,0,1-0.447,1-1s-0.448-1-1-1h-2.042c-0.552,0-1,0.447-1,1S17.703,8.293,18.255,8.293z" fill="#34bbff"/>
	<path d="M25.404,8.293h2.042c0.552,0,1-0.447,1-1s-0.448-1-1-1h-2.042c-0.552,0-1,0.447-1,1S24.852,8.293,25.404,8.293z" fill="#34bbff"/>
	<path d="M32.553,8.293h2.042c0.552,0,1-0.447,1-1s-0.448-1-1-1h-2.042c-0.552,0-1,0.447-1,1S32.001,8.293,32.553,8.293z" fill="#34bbff"/>
	<path d="M46.851,8.293h2.042c0.552,0,1-0.447,1-1s-0.448-1-1-1h-2.042c-0.552,0-1,0.447-1,1S46.299,8.293,46.851,8.293z" fill="#34bbff"/>
	<path d="M39.702,8.293h2.042c0.552,0,1-0.447,1-1s-0.448-1-1-1h-2.042c-0.552,0-1,0.447-1,1S39.15,8.293,39.702,8.293z" fill="#34bbff"/>
	<path d="M11.106,8.293h2.042c0.552,0,1-0.447,1-1s-0.448-1-1-1h-2.042c-0.552,0-1,0.447-1,1S10.554,8.293,11.106,8.293z" fill="#34bbff"/>
	<path d="M5,9.293c0.552,0,1-0.447,1-1c0.552,0,1-0.447,1-1s-0.448-1-1-1H4v2C4,8.846,4.448,9.293,5,9.293z" fill="#34bbff"/>
	<path d="M5,16.505c0.552,0,1-0.447,1-1v-2.061c0-0.553-0.448-1-1-1s-1,0.447-1,1v2.061C4,16.058,4.448,16.505,5,16.505z" fill="#34bbff"/>
	<path d="M5,38.142c0.552,0,1-0.447,1-1v-2.061c0-0.553-0.448-1-1-1s-1,0.447-1,1v2.061C4,37.694,4.448,38.142,5,38.142z" fill="#34bbff"/>
	<path d="M5,23.717c0.552,0,1-0.447,1-1v-2.061c0-0.553-0.448-1-1-1s-1,0.447-1,1v2.061C4,23.27,4.448,23.717,5,23.717z" fill="#34bbff"/>
	<path d="M5,30.929c0.552,0,1-0.447,1-1v-2.061c0-0.553-0.448-1-1-1s-1,0.447-1,1v2.061C4,30.481,4.448,30.929,5,30.929z" fill="#34bbff"/>
	<path d="M7,43.293c0-0.553-0.448-1-1-1c0-0.553-0.448-1-1-1s-1,0.447-1,1v2h2C6.552,44.293,7,43.846,7,43.293z" fill="#34bbff"/>
	<path d="M27,42.293h-2c-0.552,0-1,0.447-1,1s0.448,1,1,1h2c0.552,0,1-0.447,1-1S27.552,42.293,27,42.293z" fill="#34bbff"/>
	<path d="M11,44.293h2c0.552,0,1-0.447,1-1s-0.448-1-1-1h-2c-0.552,0-1,0.447-1,1S10.448,44.293,11,44.293z" fill="#34bbff"/>
	<path d="M20,42.293h-2c-0.552,0-1,0.447-1,1s0.448,1,1,1h2c0.552,0,1-0.447,1-1S20.552,42.293,20,42.293z" fill="#34bbff"/>
	<path d="M33,42.293h-1c-0.552,0-1,0.447-1,1s0.448,1,1,1h1c0.552,0,1-0.447,1-1S33.552,42.293,33,42.293z" fill="#34bbff"/>
	<path d="M60,2.293H0v46h38v9.414l7-7l7,7v-9.414h8V2.293z M50,52.879l-5-5l-5,5v-4.586v-6.349c0.012,0.007,0.026,0.012,0.038,0.019   c1.464,0.841,3.156,1.33,4.962,1.33s3.498-0.489,4.962-1.33c0.012-0.007,0.026-0.011,0.038-0.019v6.349V52.879z M50.293,39.275   c-0.157,0.139-0.318,0.27-0.484,0.395c-0.032,0.024-0.063,0.048-0.096,0.072c-0.165,0.121-0.334,0.235-0.506,0.342   c-0.039,0.024-0.079,0.048-0.118,0.072c-0.168,0.101-0.34,0.196-0.514,0.283c-0.05,0.025-0.101,0.049-0.151,0.073   c-0.168,0.08-0.337,0.155-0.51,0.223c-0.066,0.026-0.133,0.049-0.2,0.073c-0.161,0.059-0.324,0.115-0.489,0.163   c-0.089,0.026-0.179,0.047-0.269,0.069c-0.148,0.038-0.296,0.075-0.446,0.104c-0.127,0.025-0.257,0.041-0.387,0.059   c-0.118,0.017-0.235,0.038-0.355,0.049c-0.253,0.024-0.51,0.039-0.769,0.039s-0.516-0.015-0.769-0.039   c-0.119-0.012-0.236-0.032-0.355-0.049c-0.129-0.018-0.259-0.035-0.387-0.059c-0.15-0.029-0.298-0.067-0.446-0.104   c-0.09-0.023-0.18-0.044-0.269-0.069c-0.165-0.048-0.327-0.104-0.489-0.163c-0.067-0.024-0.134-0.047-0.2-0.073   c-0.172-0.068-0.342-0.143-0.51-0.223c-0.051-0.024-0.101-0.048-0.151-0.073c-0.175-0.088-0.346-0.183-0.514-0.283   c-0.04-0.024-0.079-0.047-0.118-0.072c-0.172-0.107-0.341-0.221-0.506-0.342c-0.032-0.024-0.064-0.047-0.096-0.072   c-0.165-0.125-0.327-0.257-0.484-0.395C38.051,37.809,37,35.674,37,33.293c0-4.411,3.589-8,8-8s8,3.589,8,8   C53,35.674,51.949,37.809,50.293,39.275z M58,46.293h-6v-5.871c1.849-1.816,3-4.339,3-7.129c0-5.514-4.486-10-10-10   s-10,4.486-10,10c0,2.79,1.151,5.314,3,7.129v5.871H2v-42h56V46.293z" fill="#34bbff"/>
	<path d="M12.182,15.065c-0.611,0.722-0.894,1.646-0.794,2.603c0.102,0.979,0.606,1.887,1.383,2.491L15,21.893v5.438   c-1.161-0.414-2-1.514-2-2.816c0-0.553-0.448-1-1-1s-1,0.447-1,1c0,2.414,1.721,4.434,4,4.899v0.878c0,0.553,0.448,1,1,1   s1-0.447,1-1v-0.882c1.091-0.222,2.085-0.801,2.819-1.668c0.611-0.724,0.893-1.648,0.793-2.605   c-0.103-0.978-0.606-1.885-1.383-2.488L17,20.916v-5.438c1.161,0.414,2,1.514,2,2.816c0,0.553,0.448,1,1,1s1-0.447,1-1   c0-2.414-1.721-4.434-4-4.899v-1.101c0-0.553-0.448-1-1-1s-1,0.447-1,1v1.104C13.909,13.62,12.915,14.198,12.182,15.065z    M18.001,24.228c0.349,0.271,0.576,0.68,0.622,1.118c0.043,0.41-0.075,0.803-0.331,1.105c-0.348,0.411-0.798,0.699-1.292,0.875   v-3.878L18.001,24.228z M13.999,18.581c-0.35-0.272-0.576-0.681-0.622-1.12c-0.042-0.409,0.075-0.801,0.331-1.104   c0.348-0.411,0.798-0.699,1.292-0.875v3.877L13.999,18.581z" fill="#34bbff"/>
	<path d="M25,17.293h23c0.552,0,1-0.447,1-1s-0.448-1-1-1H25c-0.552,0-1,0.447-1,1S24.448,17.293,25,17.293z" fill="#34bbff"/>
	<path d="M25,23.293h11c0.552,0,1-0.447,1-1s-0.448-1-1-1H25c-0.552,0-1,0.447-1,1S24.448,23.293,25,23.293z" fill="#34bbff"/>
	<path d="M25,29.293h8c0.552,0,1-0.447,1-1s-0.448-1-1-1h-8c-0.552,0-1,0.447-1,1S24.448,29.293,25,29.293z" fill="#34bbff"/>
	<path d="M11,36.293h21c0.552,0,1-0.447,1-1s-0.448-1-1-1H11c-0.552,0-1,0.447-1,1S10.448,36.293,11,36.293z" fill="#34bbff"/>
</g>
<g>
</g>
<g>
</g>
<g>
</g>
<g>
</g>
<g>
</g>
<g>
</g>
<g>
</g>
<g>
</g>
<g>
</g>
<g>
</g>
<g>
</g>
<g>
</g>
<g>
</g>
<g>
</g>
<g>
</g>
</svg>
