<?xml version="1.0" encoding="iso-8859-1"?>
<!-- Generator: Adobe Illustrator 19.0.0, SVG Export Plug-In . SVG Version: 6.00 Build 0)  -->
<svg xmlns="http://www.w3.org/2000/svg" xmlns:xlink="http://www.w3.org/1999/xlink" version="1.1" id="Capa_1" x="0px" y="0px" viewBox="0 0 496 496" style="enable-background:new 0 0 496 496;" xml:space="preserve" width="512px" height="512px">
<g>
	<g>
		<g>
			<path d="M256,176v-16h8c17.648,0,32-14.352,32-32s-14.352-32-32-32h-32c-8.824,0-16-7.176-16-16s7.176-16,16-16h32     c8.824,0,16,7.176,16,16h16c0-17.648-14.352-32-32-32h-8V32h-16v16h-8c-17.648,0-32,14.352-32,32s14.352,32,32,32h32     c8.824,0,16,7.176,16,16s-7.176,16-16,16h-32c-8.824,0-16-7.176-16-16h-16c0,17.648,14.352,32,32,32h8v16H256z" fill="#34bbff"/>
			<rect x="143.825" y="416.176" transform="matrix(0.707 -0.7072 0.7072 0.707 -255.4963 231.6517)" width="16" height="16" fill="#34bbff"/>
			<rect x="240" y="456" width="16" height="16" fill="#34bbff"/>
			<rect x="336.153" y="416.15" transform="matrix(0.707 0.7072 -0.7072 0.707 400.7987 -119.1136)" width="16" height="16" fill="#34bbff"/>
			<path d="M304,328c0,28.152-20.912,51.456-48,55.36V296c0-22.056,17.944-40,40-40h55.192c-3.72,18.232-19.872,32-39.192,32h-40v16     h40c30.872,0,56-25.12,56-56v-8h-72c-15.664,0-29.824,6.48-40,16.888V207.6c53.608-4.12,96-48.952,96-103.6     C352,46.656,305.344,0,248,0S144,46.656,144,104c0,54.648,42.392,99.48,96,103.592v49.288c-10.176-10.4-24.336-16.88-40-16.88     h-72v8c0,30.88,25.128,56,56,56h40v-16h-40c-19.32,0-35.48-13.768-39.192-32H200c22.056,0,40,17.944,40,40v87.36     c-27.088-3.904-48-27.208-48-55.36v-8H0v16h80v29.768l32.504,10.832c1.984,5.496,4.376,11.008,7.136,16.448l14.264-7.24     c-3.032-5.976-5.56-12.048-7.52-18.032l-1.248-3.832L96,354.232V336h40.408c4.128,58.024,52.536,104,111.592,104     c59.056,0,107.464-45.976,111.592-104H400v18.232l-29.136,9.704l-1.248,3.832c-1.96,5.992-4.496,12.056-7.52,18.032l-1.832,3.592     l13.768,27.528l-37.104,37.104l-27.52-13.768l-3.6,1.824c-5.992,3.04-12.064,5.576-18.032,7.52l-3.832,1.248L274.232,480H221.76     l-9.712-29.136l-3.832-1.248c-5.968-1.952-12.04-4.48-18.032-7.52l-3.6-1.824l-27.52,13.768l-41.176-41.176l-11.312,11.312     l49.336,49.336l30.688-15.344c4.256,2.016,8.536,3.808,12.8,5.344L210.232,496h75.528l10.832-32.504     c4.256-1.536,8.536-3.328,12.8-5.344l30.688,15.344l53.416-53.416l-15.344-30.696c2.008-4.24,3.8-8.52,5.336-12.792L416,365.768     V336h80v-16H304V328z M160,104c0-48.52,39.48-88,88-88s88,39.48,88,88s-39.48,88-88,88C199.48,192,160,152.52,160,104z      M343.592,336c-4.088,49.192-45.352,88-95.592,88s-91.504-38.808-95.592-88h24.04C180.44,371.952,211,400,248,400     s67.56-28.048,71.552-64H343.592z" fill="#34bbff"/>
			<rect x="448" y="352" width="16" height="16" fill="#34bbff"/>
			<rect x="424" y="424" width="16" height="16" fill="#34bbff"/>
			<rect x="376" y="480" width="16" height="16" fill="#34bbff"/>
			<rect x="32" y="352" width="16" height="16" fill="#34bbff"/>
			<rect x="56" y="424" width="16" height="16" fill="#34bbff"/>
			<rect x="104" y="480" width="16" height="16" fill="#34bbff"/>
			<path d="M24,216c13.232,0,24-10.768,24-24s-10.768-24-24-24S0,178.768,0,192S10.768,216,24,216z M24,184c4.416,0,8,3.592,8,8     s-3.584,8-8,8s-8-3.592-8-8S19.584,184,24,184z" fill="#34bbff"/>
			<rect x="16" y="120" width="16" height="16" fill="#34bbff"/>
			<rect x="16" y="56" width="16" height="16" fill="#34bbff"/>
			<path d="M472,96c13.232,0,24-10.768,24-24s-10.768-24-24-24s-24,10.768-24,24S458.768,96,472,96z M472,64c4.416,0,8,3.592,8,8     s-3.584,8-8,8c-4.416,0-8-3.592-8-8S467.584,64,472,64z" fill="#34bbff"/>
			<rect x="464" y="128" width="16" height="16" fill="#34bbff"/>
			<rect x="464" y="192" width="16" height="16" fill="#34bbff"/>
		</g>
	</g>
</g>
<g>
</g>
<g>
</g>
<g>
</g>
<g>
</g>
<g>
</g>
<g>
</g>
<g>
</g>
<g>
</g>
<g>
</g>
<g>
</g>
<g>
</g>
<g>
</g>
<g>
</g>
<g>
</g>
<g>
</g>
</svg>
