<?xml version="1.0" encoding="iso-8859-1"?>
<!-- Generator: Adobe Illustrator 19.0.0, SVG Export Plug-In . SVG Version: 6.00 Build 0)  -->
<svg xmlns="http://www.w3.org/2000/svg" xmlns:xlink="http://www.w3.org/1999/xlink" version="1.1" id="Capa_1" x="0px" y="0px" viewBox="0 0 496 496" style="enable-background:new 0 0 496 496;" xml:space="preserve" width="512px" height="512px">
<g>
	<g>
		<g>
			<path d="M224,472c0,4.408-3.584,8-8,8H24c-4.416,0-8-3.592-8-8V296c0-4.408,3.584-8,8-8h192c4.416,0,8,3.592,8,8v16h16v-16     c0-10.416-6.712-19.216-16-22.528V200c0-57.344-46.656-104-104-104S16,142.656,16,200v73.472C6.712,276.784,0,285.584,0,296v176     c0,13.232,10.768,24,24,24h192c13.232,0,24-10.768,24-24v-32h-16V472z M176,272H64v-72c0-30.88,25.128-56,56-56s56,25.12,56,56     V272z M32,200c0-48.52,39.48-88,88-88s88,39.48,88,88v72h-16v-72c0-39.696-32.296-72-72-72s-72,32.304-72,72v72H32V200z" fill="#34bbff"/>
			<path d="M376,256c-49.104,0-91.352,29.672-109.912,72H240c-8.824,0-16,7.176-16,16h-64c0-22.056-17.944-40-40-40     c-22.056,0-40,17.944-40,40c0,12.504,6.032,24.328,16,31.832V464h48v-56h80c0,8.824,7.176,16,16,16h26.088     c18.56,42.328,60.808,72,109.912,72c66.168,0,120-53.832,120-120S442.168,256,376,256z M120,320c13.232,0,24,10.768,24,24H96     C96,330.768,106.768,320,120,320z M128,448h-16v-40h16V448z M224,392H112v-25.04l-3.976-2.312     c-2.184-1.272-4.016-2.88-5.656-4.648H224V392z M260.464,408H240v-64h20.464c-2.832,10.208-4.464,20.904-4.464,32     S257.632,397.792,260.464,408z M376,480c-57.344,0-104-46.656-104-104s46.656-104,104-104s104,46.656,104,104     S433.344,480,376,480z" fill="#34bbff"/>
			<path d="M464,46.528V189.44l-38.504,53.912l13.016,9.296L480,194.56V46.528c9.288-3.312,16-12.112,16-22.528     c0-13.232-10.768-24-24-24s-24,10.768-24,24C448,34.416,454.712,43.216,464,46.528z M472,16c4.416,0,8,3.592,8,8s-3.584,8-8,8     c-4.416,0-8-3.592-8-8S467.584,16,472,16z" fill="#34bbff"/>
			<path d="M368,86.528V240h16V86.528c9.288-3.312,16-12.112,16-22.528c0-13.232-10.768-24-24-24s-24,10.768-24,24     C352,74.416,358.712,83.216,368,86.528z M376,56c4.416,0,8,3.592,8,8s-3.584,8-8,8c-4.416,0-8-3.592-8-8S371.584,56,376,56z" fill="#34bbff"/>
			<path d="M272,46.528V194.56l41.496,58.088l13.016-9.296L288,189.44V46.528c9.288-3.312,16-12.112,16-22.528     c0-13.232-10.768-24-24-24s-24,10.768-24,24C256,34.416,262.712,43.216,272,46.528z M280,16c4.416,0,8,3.592,8,8s-3.584,8-8,8     c-4.416,0-8-3.592-8-8S275.584,16,280,16z" fill="#34bbff"/>
			<rect x="416" y="136" width="16" height="64" fill="#34bbff"/>
			<rect x="416" y="104" width="16" height="16" fill="#34bbff"/>
			<rect x="320" y="136" width="16" height="64" fill="#34bbff"/>
			<rect x="320" y="104" width="16" height="16" fill="#34bbff"/>
			<path d="M400,337.472V320h-16v16h-16v-16h-16v16h-16v80h16v16h16v-16h16v16h16v-17.472c9.288-3.312,16-12.112,16-22.528     c0-6.144-2.32-11.752-6.128-16c3.808-4.248,6.128-9.856,6.128-16C416,349.584,409.288,340.784,400,337.472z M392,400h-40v-16h40     c4.416,0,8,3.592,8,8C400,396.408,396.416,400,392,400z M392,368h-40v-16h40c4.416,0,8,3.592,8,8     C400,364.408,396.416,368,392,368z" fill="#34bbff"/>
			<path d="M376,304c16.56,0,32.744,5.776,45.544,16.256l10.144-12.384C416.024,295.056,396.248,288,376,288     c-48.52,0-88,39.48-88,88c0,20.248,7.064,40.024,19.88,55.688l12.376-10.136C309.776,408.744,304,392.56,304,376     C304,336.304,336.296,304,376,304z" fill="#34bbff"/>
			<path d="M431.744,330.448C442.224,343.256,448,359.44,448,376c0,39.696-32.296,72-72,72c-16.56,0-32.744-5.776-45.544-16.256     l-10.144,12.384C335.976,456.944,355.752,464,376,464c48.52,0,88-39.48,88-88c0-20.248-7.064-40.024-19.88-55.688     L431.744,330.448z" fill="#34bbff"/>
		</g>
	</g>
</g>
<g>
</g>
<g>
</g>
<g>
</g>
<g>
</g>
<g>
</g>
<g>
</g>
<g>
</g>
<g>
</g>
<g>
</g>
<g>
</g>
<g>
</g>
<g>
</g>
<g>
</g>
<g>
</g>
<g>
</g>
</svg>
